<svg xmlns="http://www.w3.org/2000/svg" viewBox="0 0 420.53 421.79"><defs><style>.cls-1,.cls-3{fill:#fff;}.cls-1{stroke:#000;}.cls-1,.cls-2{stroke-miterlimit:10;}.cls-2{stroke:#fff;}</style></defs><title>資產 1</title><g id="圖層_2" data-name="圖層 2"><g id="Layer_3" data-name="Layer 3"><circle class="cls-1" cx="210.26" cy="210.26" r="209.76"/><path d="M253.94,401.51a8.26,8.26,0,0,0,2.12-.36l12.51-3.46.67-1.43c.6.24,1.18.49,1.73.73.12.05.2.11.22.19s0,.33-.18.38l-14.81,4.09c-.83.25-1.4.43-1.7.55Z"/><path d="M281.65,384.35a5.85,5.85,0,0,1,.83,0,3.88,3.88,0,0,1,.68.06,1.23,1.23,0,0,1,.41.11.33.33,0,0,1,.15.16,1.32,1.32,0,0,1,.13.59.19.19,0,0,1,0,.1l5.87-2.47.43-1.29c.59.13,1.15.27,1.68.41a.25.25,0,0,1,.24.14c.09.19,0,.33-.13.4l-14.3,6c-.8.35-1.34.61-1.62.76l-.64-.61a9.23,9.23,0,0,0,2.05-.64l5.87-2.47-.12-.09a1.53,1.53,0,0,0-.43-.36,2.24,2.24,0,0,0-.54-.26,2.86,2.86,0,0,0-.7-.23Zm-2.56,7.94.22-.09.34.8a1.36,1.36,0,0,1,.07.22L292.08,388l.25-.76a8.18,8.18,0,0,1,1.43.43.14.14,0,0,1,.1.08c0,.1-.06.22-.28.36l-.5.35a5.36,5.36,0,0,1-.29,1.09,5.66,5.66,0,0,1-.39,1.14l-.36-.09a5,5,0,0,0,.24-1.16,6.08,6.08,0,0,0,0-1l-12.38,5.2c0,.15.07.29.09.41a3.58,3.58,0,0,1,.12,1,1.25,1.25,0,0,1-.11.61,1.42,1.42,0,0,1-.21.41.79.79,0,0,1-.22.18c-.29.12-.47.08-.56-.12a.58.58,0,0,1,.08-.43,7.7,7.7,0,0,0,.32-1.22,4.18,4.18,0,0,0,0-1A6,6,0,0,0,279.09,392.29Zm.4-3.9,1.24.12,7.3-3.06.25-.76c.75.12,1.15.25,1.21.4s-.05.34-.3.67l.48,1.14.43.12c.08,0,.14,0,.15.08s.08.31,0,.34l-8.65,3.64q.06.15-.12.33a1.69,1.69,0,0,1-.36.26c-.14.05-.24,0-.29-.11Zm1.9,2.21,7.48-3.15,0-.07-.61-1.46-7.54,3.17Zm8.91.45c-.78.54-1.59,1.06-2.43,1.57-.42.27-.86.53-1.29.77l.55,1.32,4.14-2,.18-1.05L293,392a.2.2,0,0,1,.17.12c0,.12,0,.22-.13.32l-5.7,2.78.67,1.58,4.81-2.25.17-1.12,1.7.28a.23.23,0,0,1,.17.13c0,.1,0,.2-.11.31l-6.53,3.15.54,1.3a.66.66,0,0,0,.45.3,1.72,1.72,0,0,0,.45-.05,7.88,7.88,0,0,0,1.29-.44l3.15-1.33a10.92,10.92,0,0,0,1.22-.57l.51-.33a.5.5,0,0,0,.22-.32.79.79,0,0,0,0-.42,16.36,16.36,0,0,0-.52-2.21h.37l.67,1.58c.14.33.26.5.38.52.37,0,.61.1.7.33a.31.31,0,0,1,0,.25,1.86,1.86,0,0,1-.26.35,3.15,3.15,0,0,1-.82.58c-.41.23-1.14.56-2.21,1l-3.16,1.33a9.07,9.07,0,0,1-1.64.55,2,2,0,0,1-.79.09,1.29,1.29,0,0,1-.52-.21,1.43,1.43,0,0,1-.26-.4l-.64-1.51-4.28,2.07-1,.57-.76-.41,1.62-.76,4.18-2-.66-1.56-4,2-.88.53-.73-.42,1.47-.7,3.9-1.86-.53-1.27-1.11.58c-.92.47-2.09,1-3.5,1.68l-.2-.3c.74-.37,1.53-.77,2.36-1.21s1.55-.9,2.25-1.36,1.41-.89,1.93-1.27a11.3,11.3,0,0,0,1.27-1,6.11,6.11,0,0,0,.71-.74c.52.09,1,.19,1.42.29a.32.32,0,0,1,.15.12.19.19,0,0,1-.12.29A2.82,2.82,0,0,1,290.3,391.05Z"/><path d="M300.1,377.62a9.45,9.45,0,0,1,1.73.35,8.3,8.3,0,0,1,1.27.38,5.08,5.08,0,0,1,.77.31,2.6,2.6,0,0,1,.38.34,1.37,1.37,0,0,1,.29.34c.18.34.16.58-.08.72a.38.38,0,0,1-.26,0,10.12,10.12,0,0,1-.87-.61,12.22,12.22,0,0,0-1.45-.88,12.85,12.85,0,0,0-1.87-.7Zm.14,5.74a7.58,7.58,0,0,0,2-.88l5.35-3.1-2.69-4.64a9.59,9.59,0,0,0-.84-1.26,7.39,7.39,0,0,1,1.74-.53c.19,0,.31,0,.36.11s0,.2-.11.33a2.57,2.57,0,0,1-.57.57l2.88,5,4.69-2.71.28-1.48,1.82.24a.28.28,0,0,1,.28.11c.1.17.05.3-.13.41l-6.69,3.87,4.19,7.23a2.54,2.54,0,0,0,.32.47q.19.27.3.45a.54.54,0,0,1-.21.83c-.27.15-.45.14-.55,0s-.3-.54-.48-.9-.36-.73-.52-1l-3.82-6.59-5.35,3.1a17.63,17.63,0,0,0-1.52,1Zm5.76-.49c.64-.11,1.21-.19,1.7-.23a.34.34,0,0,1,.24.16c.06.09,0,.22-.21.38a3.22,3.22,0,0,1-.48.36,18,18,0,0,1-.37,2.56,15.47,15.47,0,0,1-.73,2.36,21.68,21.68,0,0,1-1.33,2.51l-.36-.07a24.38,24.38,0,0,0,1.06-2.51,17.27,17.27,0,0,0,.44-2c.11-.7.19-1.34.24-1.93A6.49,6.49,0,0,0,306,382.87ZM309.5,372c1.18-.14,1.82-.12,1.93.06s-.16.34-.67.64a11.78,11.78,0,0,1-.4,2.16,14.58,14.58,0,0,1-.64,2.43l-.25,0c.12-.84.2-1.56.23-2.15a10.43,10.43,0,0,0,0-1.66A9,9,0,0,0,309.5,372Zm1.76,8.1a15.11,15.11,0,0,1,2.93.37,14.73,14.73,0,0,1,2.12.43,5.84,5.84,0,0,1,1.23.38c.26.17.48.33.67.48a1.69,1.69,0,0,1,.44.51c.16.3.13.51-.08.63a.69.69,0,0,1-.41.09,7.22,7.22,0,0,1-1.44-.76,11.78,11.78,0,0,0-2.4-1.08,21,21,0,0,0-3.13-.77Z"/><path d="M67.37,76.2a10.54,10.54,0,0,1,1.88,2.16,6,6,0,0,1,.87,2.26,4.86,4.86,0,0,1-.2,2.29,6.62,6.62,0,0,1-1.36,2.26,6.91,6.91,0,0,1-2,1.61,4.44,4.44,0,0,1-2.12.48,5.46,5.46,0,0,1-2.23-.59A10.75,10.75,0,0,1,59.85,85,10,10,0,0,1,58,82.91a5.74,5.74,0,0,1-.86-2.24,5,5,0,0,1,.22-2.29,6.62,6.62,0,0,1,1.36-2.26,6.84,6.84,0,0,1,2-1.58,4.45,4.45,0,0,1,2.12-.49,5.4,5.4,0,0,1,2.23.56A10.69,10.69,0,0,1,67.37,76.2Zm-1.12,1.45a9.89,9.89,0,0,0-1.67-1.21,4.71,4.71,0,0,0-1.66-.6A3.11,3.11,0,0,0,61.3,76a4,4,0,0,0-1.54,1.15,3.72,3.72,0,0,0-.93,1.69,3.49,3.49,0,0,0,0,1.67,4.76,4.76,0,0,0,.77,1.59A9.17,9.17,0,0,0,61,83.59a10.83,10.83,0,0,0,1.71,1.26,4.81,4.81,0,0,0,1.67.62A3.08,3.08,0,0,0,66,85.28a4.2,4.2,0,0,0,1.54-1.17,3.9,3.9,0,0,0,1-1.7,3.45,3.45,0,0,0,0-1.69,4.9,4.9,0,0,0-.8-1.6A10.31,10.31,0,0,0,66.25,77.65Z"/><path d="M79.31,73.28a.24.24,0,0,1,.07.13.32.32,0,0,1,0,.16,1.27,1.27,0,0,1-.14.22,2.2,2.2,0,0,1-.27.29l-.3.28a1.12,1.12,0,0,1-.22.13.26.26,0,0,1-.16,0,.24.24,0,0,1-.13-.07l-3.73-3.74a5,5,0,0,0-1-.8,2.44,2.44,0,0,0-.82-.33,1.62,1.62,0,0,0-.79,0,2,2,0,0,0-.73.47,2.22,2.22,0,0,0-.57,1.19,6.58,6.58,0,0,0,0,1.84L75,77.6a.25.25,0,0,1,.07.12.24.24,0,0,1,0,.16.89.89,0,0,1-.13.22,3.39,3.39,0,0,1-.28.31,3.3,3.3,0,0,1-.3.27.89.89,0,0,1-.22.13.26.26,0,0,1-.16,0,.25.25,0,0,1-.12-.07l-6.37-6.4a.28.28,0,0,1-.08-.11.32.32,0,0,1,0-.16.62.62,0,0,1,.12-.2,2.68,2.68,0,0,1,.25-.28l.27-.24a.55.55,0,0,1,.2-.12.3.3,0,0,1,.16,0,.25.25,0,0,1,.12.07l.84.84a5.57,5.57,0,0,1,.19-2,3.25,3.25,0,0,1,.81-1.36A3.39,3.39,0,0,1,71.63,68a2.7,2.7,0,0,1,1.28-.12,3.18,3.18,0,0,1,1.24.46,7.41,7.41,0,0,1,1.28,1Z"/><path d="M83.87,62.54a.69.69,0,0,1,.22.55.62.62,0,0,1-.22.42l-4.43,4a5.22,5.22,0,0,0,1,.91,2.68,2.68,0,0,0,1.07.44,2.42,2.42,0,0,0,1.12-.12A3.74,3.74,0,0,0,83.82,68a6,6,0,0,0,.79-.84,6.76,6.76,0,0,0,.49-.76c.13-.23.23-.42.3-.58a1.06,1.06,0,0,1,.19-.32.21.21,0,0,1,.12,0,.24.24,0,0,1,.14,0l.16.11.22.22.14.18a.8.8,0,0,1,.09.14.38.38,0,0,1,.06.13.75.75,0,0,1,0,.15,1.25,1.25,0,0,1-.12.35,5.06,5.06,0,0,1-.36.65,9.8,9.8,0,0,1-.6.83,6.83,6.83,0,0,1-.84.87,5.25,5.25,0,0,1-1.66,1.07,3.57,3.57,0,0,1-1.66.25,4,4,0,0,1-1.67-.57A6.84,6.84,0,0,1,78,68.4a6.73,6.73,0,0,1-1.17-1.76,4.41,4.41,0,0,1-.41-1.75,4,4,0,0,1,.36-1.66,4.69,4.69,0,0,1,1.11-1.45,4.3,4.3,0,0,1,1.58-1A3.5,3.5,0,0,1,81,60.69a3.86,3.86,0,0,1,1.42.54,5.93,5.93,0,0,1,1.28,1.09Zm-1.57.75a3,3,0,0,0-1.8-1.14,2.21,2.21,0,0,0-1.84.65,2.34,2.34,0,0,0-.65.89,2.23,2.23,0,0,0-.17,1,2.74,2.74,0,0,0,.23,1,3.66,3.66,0,0,0,.56.92Z"/><path d="M103.9,53.28a.24.24,0,0,1,0,.14.29.29,0,0,1-.06.16,1.45,1.45,0,0,1-.18.21,2.67,2.67,0,0,1-.32.26,2.11,2.11,0,0,1-.34.22,1.34,1.34,0,0,1-.25.12.24.24,0,0,1-.17,0,.18.18,0,0,1-.12-.09l-6.69-9.11,0,0,3,11.85a.38.38,0,0,1,0,.15.48.48,0,0,1-.08.16,1,1,0,0,1-.17.19,2.3,2.3,0,0,1-.27.22,3.11,3.11,0,0,1-.3.2l-.24.1a.36.36,0,0,1-.17,0,.25.25,0,0,1-.13,0L87.24,51.5h0l6.69,9.11a.27.27,0,0,1,0,.14.29.29,0,0,1-.06.16,1.45,1.45,0,0,1-.18.21,2.67,2.67,0,0,1-.33.27,3.43,3.43,0,0,1-.35.23l-.24.1a.34.34,0,0,1-.17,0,.26.26,0,0,1-.11-.1L85.46,52a.75.75,0,0,1-.17-.62.8.8,0,0,1,.29-.44l.86-.63a2.6,2.6,0,0,1,.49-.29,1.32,1.32,0,0,1,.46-.1,1.12,1.12,0,0,1,.44.09,2,2,0,0,1,.45.25l8.56,5.38,0,0-2.44-9.84a2.48,2.48,0,0,1-.1-.55,1.59,1.59,0,0,1,0-.45,1.16,1.16,0,0,1,.18-.35,1.42,1.42,0,0,1,.33-.31l.89-.66a.91.91,0,0,1,.26-.13.69.69,0,0,1,.28,0,.74.74,0,0,1,.27.1,1.2,1.2,0,0,1,.26.25Z"/><path d="M101.5,40.57a1.05,1.05,0,0,1,.24.78c0,.2-.23.4-.56.62a1.16,1.16,0,0,1-.78.26,1.07,1.07,0,0,1-.61-.53,1.08,1.08,0,0,1-.24-.79c0-.2.23-.4.56-.62a1.16,1.16,0,0,1,.78-.26A1.1,1.1,0,0,1,101.5,40.57Zm6.41,10.23a.17.17,0,0,1,0,.13.3.3,0,0,1,0,.15,1,1,0,0,1-.18.19,2.87,2.87,0,0,1-.33.24l-.35.2a.85.85,0,0,1-.25.09.27.27,0,0,1-.16,0,.28.28,0,0,1-.1-.09l-4.92-7.57a.33.33,0,0,1,0-.13.27.27,0,0,1,.05-.16,1.12,1.12,0,0,1,.19-.19c.08-.07.19-.14.32-.23l.36-.21a.67.67,0,0,1,.24-.08.21.21,0,0,1,.16,0,.24.24,0,0,1,.11.09Z"/><path d="M111.85,48.33a.26.26,0,0,1,0,.29,1.51,1.51,0,0,1-.18.18,2.2,2.2,0,0,1-.34.23l-.35.2a1.17,1.17,0,0,1-.25.08.27.27,0,0,1-.16,0,.19.19,0,0,1-.1-.1l-7-11.41a.27.27,0,0,1,0-.14.24.24,0,0,1,.06-.15.84.84,0,0,1,.19-.19,3,3,0,0,1,.33-.23,3.28,3.28,0,0,1,.36-.19.83.83,0,0,1,.24-.08.31.31,0,0,1,.17,0,.35.35,0,0,1,.11.1Z"/><path d="M115.84,46a.16.16,0,0,1,0,.13.24.24,0,0,1-.06.15.83.83,0,0,1-.19.18,2.24,2.24,0,0,1-.34.22,3.28,3.28,0,0,1-.36.19,1.17,1.17,0,0,1-.25.08.37.37,0,0,1-.16,0,.24.24,0,0,1-.1-.1l-6.74-11.58a.37.37,0,0,1,0-.14.24.24,0,0,1,.06-.15.9.9,0,0,1,.2-.18,2.08,2.08,0,0,1,.33-.22,2.63,2.63,0,0,1,.37-.19l.24-.08a.44.44,0,0,1,.17,0,.27.27,0,0,1,.1.11Z"/><path d="M114.25,33a1.09,1.09,0,0,1,.19.8,1.18,1.18,0,0,1-.61.58,1.21,1.21,0,0,1-.8.2c-.19-.05-.38-.24-.56-.58a1.08,1.08,0,0,1-.19-.8,1.7,1.7,0,0,1,1.41-.78A1.12,1.12,0,0,1,114.25,33ZM119.9,43.7a.31.31,0,0,1,0,.13.34.34,0,0,1-.07.15.83.83,0,0,1-.19.17,3.12,3.12,0,0,1-.35.22,3,3,0,0,1-.36.18l-.26.07a.27.27,0,0,1-.16,0,.22.22,0,0,1-.09-.1l-4.35-7.91a.28.28,0,0,1,0-.13.21.21,0,0,1,.07-.15,1.13,1.13,0,0,1,.19-.18l.34-.21.37-.18a.74.74,0,0,1,.25-.06.26.26,0,0,1,.16,0,.17.17,0,0,1,.1.1Z"/><path d="M134.44,36.45a.24.24,0,0,1,0,.14.31.31,0,0,1-.07.14,1.25,1.25,0,0,1-.2.17l-.36.19-.38.16a.92.92,0,0,1-.25,0,.3.3,0,0,1-.17,0,.2.2,0,0,1-.09-.11l-2.37-4.94a4.77,4.77,0,0,0-.55-.9,2.21,2.21,0,0,0-.64-.59,1.4,1.4,0,0,0-.73-.23,1.72,1.72,0,0,0-.8.18,2,2,0,0,0-.84.9,7.81,7.81,0,0,0-.59,1.71L129.15,39a.23.23,0,0,1,0,.14.23.23,0,0,1-.08.14.71.71,0,0,1-.2.17,3.48,3.48,0,0,1-.35.19,2.39,2.39,0,0,1-.37.15.78.78,0,0,1-.26.06.2.2,0,0,1-.16,0,.22.22,0,0,1-.09-.1l-2.37-5a4.51,4.51,0,0,0-.56-.89,2.39,2.39,0,0,0-.65-.59,1.49,1.49,0,0,0-.72-.23,1.72,1.72,0,0,0-.8.18,2,2,0,0,0-.85.9,7.86,7.86,0,0,0-.58,1.71l2.73,5.69a.18.18,0,0,1,0,.14.26.26,0,0,1-.07.14.92.92,0,0,1-.2.16,2.75,2.75,0,0,1-.36.2,2.87,2.87,0,0,1-.37.15.78.78,0,0,1-.26.06.35.35,0,0,1-.16,0,.2.2,0,0,1-.09-.11l-3.91-8.13a.39.39,0,0,1,0-.14.37.37,0,0,1,.07-.14.71.71,0,0,1,.18-.15l.33-.18a2.75,2.75,0,0,1,.34-.14.52.52,0,0,1,.22,0l.15,0a.24.24,0,0,1,.09.11l.52,1.08a6,6,0,0,1,.79-1.77,3,3,0,0,1,1.14-1,3.61,3.61,0,0,1,1-.32,2.59,2.59,0,0,1,1.64.24,3.43,3.43,0,0,1,.67.48,9.46,9.46,0,0,1,.42-1.12,4.91,4.91,0,0,1,.46-.83,3.15,3.15,0,0,1,.53-.6,2.63,2.63,0,0,1,.61-.39,3.19,3.19,0,0,1,1.45-.36,2.67,2.67,0,0,1,1.22.32,3.29,3.29,0,0,1,1,.86,6.17,6.17,0,0,1,.77,1.24Z"/><path d="M142.42,28a.72.72,0,0,1,0,.59.66.66,0,0,1-.36.32l-5.52,2.19a5.5,5.5,0,0,0,.64,1.21,2.59,2.59,0,0,0,.85.77,2.32,2.32,0,0,0,1.09.28,3.74,3.74,0,0,0,1.37-.3,5.81,5.81,0,0,0,1-.52,6.11,6.11,0,0,0,.72-.54c.2-.17.36-.32.48-.44a.93.93,0,0,1,.29-.23.32.32,0,0,1,.13,0,.19.19,0,0,1,.12.07.62.62,0,0,1,.12.17,1.78,1.78,0,0,1,.12.27,1.52,1.52,0,0,1,.08.22c0,.06,0,.11,0,.16a.38.38,0,0,1,0,.15.74.74,0,0,1,0,.14,1.5,1.5,0,0,1-.24.29,5.24,5.24,0,0,1-.56.49,8.37,8.37,0,0,1-.85.56,7.38,7.38,0,0,1-1.09.54,5.59,5.59,0,0,1-1.92.43,3.62,3.62,0,0,1-1.65-.34,4,4,0,0,1-1.37-1.11,7.12,7.12,0,0,1-1.06-1.88,6.61,6.61,0,0,1-.49-2.06,4.3,4.3,0,0,1,.22-1.78,3.68,3.68,0,0,1,.91-1.43,4.38,4.38,0,0,1,1.54-1,4.17,4.17,0,0,1,1.81-.35,3.46,3.46,0,0,1,1.48.39,3.76,3.76,0,0,1,1.15,1,5.75,5.75,0,0,1,.82,1.46Zm-1.73.16a3.05,3.05,0,0,0-1.3-1.69,2.18,2.18,0,0,0-1.95,0,2.39,2.39,0,0,0-.92.61,2.42,2.42,0,0,0-.5.86,2.75,2.75,0,0,0-.12,1,3.91,3.91,0,0,0,.21,1.06Z"/><path d="M150.58,29.68a2.14,2.14,0,0,1,.11.44.59.59,0,0,1,0,.28,1.09,1.09,0,0,1-.18.22,1.92,1.92,0,0,1-.31.23,3.58,3.58,0,0,1-.39.21l-.42.18a3.26,3.26,0,0,1-1.2.22,1.82,1.82,0,0,1-1-.26,2.07,2.07,0,0,1-.75-.75,5.43,5.43,0,0,1-.59-1.23l-1.72-5-1.2.42a.28.28,0,0,1-.28-.07,1.12,1.12,0,0,1-.25-.47,1.69,1.69,0,0,1-.09-.31,1.86,1.86,0,0,1,0-.22.26.26,0,0,1,.06-.15.26.26,0,0,1,.13-.08l1.18-.41-.7-2a.33.33,0,0,1,0-.14.33.33,0,0,1,.09-.14.64.64,0,0,1,.22-.14,2.81,2.81,0,0,1,.37-.15,2.4,2.4,0,0,1,.4-.12.82.82,0,0,1,.26,0,.3.3,0,0,1,.15.06.18.18,0,0,1,.08.11l.71,2,2.19-.75a.24.24,0,0,1,.14,0,.34.34,0,0,1,.14.08.83.83,0,0,1,.13.18c0,.08.08.18.13.3a1.1,1.1,0,0,1,.08.52.27.27,0,0,1-.17.23l-2.19.76,1.65,4.76a2.79,2.79,0,0,0,.72,1.24,1.06,1.06,0,0,0,1.09.13,1.59,1.59,0,0,0,.37-.18,2.26,2.26,0,0,0,.28-.2l.19-.16a.38.38,0,0,1,.16-.11.17.17,0,0,1,.1,0,.12.12,0,0,1,.09.06l.11.17A1.55,1.55,0,0,1,150.58,29.68Z"/><path d="M158.51,22.82a.66.66,0,0,1,0,.59.63.63,0,0,1-.38.28l-5.69,1.71a5.53,5.53,0,0,0,.53,1.25,2.53,2.53,0,0,0,.78.84,2.22,2.22,0,0,0,1.06.38,3.57,3.57,0,0,0,1.39-.18,4.86,4.86,0,0,0,1.07-.43,6.2,6.2,0,0,0,.77-.47l.51-.4a1,1,0,0,1,.32-.2.2.2,0,0,1,.13,0,.21.21,0,0,1,.11.08.85.85,0,0,1,.1.17c0,.08.07.18.1.29s0,.16.06.22a1.11,1.11,0,0,1,0,.17.38.38,0,0,1,0,.15.69.69,0,0,1,0,.13,1.4,1.4,0,0,1-.26.27,4.67,4.67,0,0,1-.61.44c-.25.15-.55.32-.89.49a6.81,6.81,0,0,1-1.13.43,5.39,5.39,0,0,1-2,.26,3.41,3.41,0,0,1-1.61-.48,4,4,0,0,1-1.27-1.22,7.05,7.05,0,0,1-.89-2,6.71,6.71,0,0,1-.31-2.09,4.33,4.33,0,0,1,.38-1.76,3.74,3.74,0,0,1,1-1.34,4.32,4.32,0,0,1,1.62-.85,4.47,4.47,0,0,1,1.83-.19,3.47,3.47,0,0,1,1.44.53A3.84,3.84,0,0,1,157.74,21a6.27,6.27,0,0,1,.69,1.53Zm-1.73,0A3,3,0,0,0,155.64,21a2.61,2.61,0,0,0-2.92.34,2.35,2.35,0,0,0-.57.8,2.74,2.74,0,0,0-.21,1,3.86,3.86,0,0,0,.12,1.07Z"/><path d="M165.28,17.48c0,.14.06.26.08.36a.72.72,0,0,1,0,.24.39.39,0,0,1,0,.14.19.19,0,0,1-.11.08H165l-.28,0h-.33a1.32,1.32,0,0,0-.39.06,1.28,1.28,0,0,0-.46.21,2.29,2.29,0,0,0-.41.45,4.38,4.38,0,0,0-.39.73c-.13.29-.26.64-.4,1.06l1.44,5.76a.22.22,0,0,1,0,.14.3.3,0,0,1-.11.12.86.86,0,0,1-.22.12l-.4.12-.39.08h-.27a.34.34,0,0,1-.15-.06.23.23,0,0,1-.06-.12L160,18.18a.33.33,0,0,1,0-.14.24.24,0,0,1,.09-.12.53.53,0,0,1,.21-.12l.35-.1.36-.08a.61.61,0,0,1,.24,0,.23.23,0,0,1,.13.07.24.24,0,0,1,.07.12l.32,1.27a7.21,7.21,0,0,1,.46-1,3.88,3.88,0,0,1,.47-.67,1.76,1.76,0,0,1,.49-.4,2.45,2.45,0,0,1,.54-.22l.29-.05a2,2,0,0,1,.35,0h.34a.89.89,0,0,1,.23.05l.1.07a.54.54,0,0,1,.06.11s0,.11.07.19Z"/><circle class="cls-2" cx="210.26" cy="210.26" r="184.25"/><text></text><path class="cls-3" d="M212.89,287.23a16,16,0,0,1,2.05,4.66,2.64,2.64,0,0,1-.86,2.73,7.56,7.56,0,0,1-3.92,1.33,62.34,62.34,0,0,1-7.23.34q-4.25,0-6.64-.2a14.3,14.3,0,0,1-3.78-.74,5.8,5.8,0,0,1-2.12-1.26,6.21,6.21,0,0,1-1.26-1.93L150.9,223.58l-38.63,68.58a8.76,8.76,0,0,1-1.46,2,5.4,5.4,0,0,1-2.19,1.27,17.18,17.18,0,0,1-3.78.67c-1.6.13-3.72.2-6.38.2a55.71,55.71,0,0,1-6.9-.34A6.07,6.07,0,0,1,88,294.62a2.87,2.87,0,0,1-.66-2.73,16.08,16.08,0,0,1,2.06-4.66L136.29,208,91.56,131.44a22.46,22.46,0,0,1-2.06-4.73,2.64,2.64,0,0,1,.6-2.79,6.38,6.38,0,0,1,3.72-1.27c1.77-.18,4.2-.26,7.3-.26,2.65,0,4.82.06,6.5.2a18.46,18.46,0,0,1,4,.66,4.22,4.22,0,0,1,2.12,1.33l1.46,1.93L152.09,191l36.64-64.45c.44-.71.88-1.35,1.32-1.93a4.28,4.28,0,0,1,1.93-1.33,14,14,0,0,1,3.52-.66c1.5-.14,3.54-.2,6.1-.2a55.21,55.21,0,0,1,6.71.33A7.37,7.37,0,0,1,212,124a2.79,2.79,0,0,1,.87,2.73,15.56,15.56,0,0,1-1.86,4.73l-44.6,76Z"/><path class="cls-3" d="M344.83,286.43a19,19,0,0,1-.4,4.26,9.11,9.11,0,0,1-1.06,2.8,4.14,4.14,0,0,1-1.53,1.53,3.71,3.71,0,0,1-1.79.47H250.32a3.38,3.38,0,0,1-1.73-.47,4.91,4.91,0,0,1-1.52-1.53,8,8,0,0,1-1.13-2.8,19,19,0,0,1-.4-4.26,18.4,18.4,0,0,1,.4-4.13,12.16,12.16,0,0,1,1-2.86,4.86,4.86,0,0,1,1.46-1.73,3.32,3.32,0,0,1,1.93-.6h35.84v-131L253,165.93a14.46,14.46,0,0,1-4.05,1.59,2.73,2.73,0,0,1-2.45-.59,5,5,0,0,1-1.26-2.87,31.88,31.88,0,0,1-.33-5.06,30.45,30.45,0,0,1,.2-3.86,12.16,12.16,0,0,1,.59-2.66,5.81,5.81,0,0,1,1.13-1.87,10.56,10.56,0,0,1,1.93-1.59l39.55-25.44a4.85,4.85,0,0,1,1.33-.66,17.72,17.72,0,0,1,2-.53,16.37,16.37,0,0,1,2.79-.34c1.06,0,2.39-.06,4-.06a45.78,45.78,0,0,1,5.31.26A14.75,14.75,0,0,1,307,123a3,3,0,0,1,1.59,1.2,3.12,3.12,0,0,1,.4,1.53v151.4h31.06a3.6,3.6,0,0,1,2,.6,4.55,4.55,0,0,1,1.53,1.73,10.32,10.32,0,0,1,.93,2.86A22.41,22.41,0,0,1,344.83,286.43Z"/></g></g></svg>