<?xml version="1.0" encoding="UTF-8"?>
<svg width="496px" height="496px" viewBox="0 0 496 496" version="1.1" xmlns="http://www.w3.org/2000/svg" xmlns:xlink="http://www.w3.org/1999/xlink">
    <title>contact</title>
    <g id="Page-1" stroke="none" stroke-width="1" fill="none" fill-rule="evenodd">
        <path d="M248,0 C384.966618,0 496,111.033382 496,248 C496,384.966618 384.966618,496 248,496 C111.033382,496 0,384.966618 0,248 C0,111.033382 111.033382,0 248,0 Z M403,202.598958 C396.723307,209.677951 390.244141,215.240017 383.5625,219.285156 C376.678385,223.734809 363.264486,232.330729 343.320801,245.072917 C323.377116,257.815104 308.039713,267.826823 297.308594,275.108073 C277.699586,288.899617 261.254385,295.876516 247.97299,296.038769 L247.5,296.041667 C234.136719,296.041667 217.533854,289.063802 197.691406,275.108073 C188.377604,268.635851 174.052572,259.281467 154.716309,247.044922 C135.380045,234.808377 120.953776,225.453993 111.4375,218.981771 C109.007812,217.363715 105.666992,214.633247 101.415039,210.790365 C97.1630859,206.947483 94.0247397,204.217014 92,202.598958 L92,334.875 C92,342.965278 94.8346353,349.842014 100.503906,355.505208 C106.173177,361.168403 113.057292,364 121.15625,364 L373.84375,364 C381.942708,364 388.826823,361.168403 394.496094,355.505208 C400.165365,349.842014 403,342.965278 403,334.875 L403,202.598958 Z M373.84375,131 L121.15625,131 C113.057292,131 106.173177,133.831597 100.503906,139.494792 C94.8346353,145.157986 92,152.034722 92,160.125 C92,167.608507 95.087728,175.344835 101.263184,183.333984 C107.438639,191.323134 114.272135,197.84592 121.763672,202.902344 C131.279948,209.374566 145.200033,218.375 163.523926,229.903646 C181.847819,241.432292 194.958008,249.825955 202.854492,255.084635 L203.088086,255.240778 C203.84349,255.747066 205.486654,256.857996 208.017578,258.573568 C210.852213,260.495009 212.97819,261.910807 214.395508,262.820964 C215.812826,263.73112 217.938802,265.04579 220.773438,266.764974 C223.608073,268.484158 225.987142,269.798828 227.910645,270.708984 C229.834147,271.619141 232.010742,272.579861 234.44043,273.591146 C236.870117,274.60243 239.147949,275.360894 241.273926,275.866536 C243.399902,276.372179 245.47526,276.625 247.5,276.625 C249.52474,276.625 251.600098,276.372179 253.726074,275.866536 C255.852051,275.360894 258.129883,274.60243 260.55957,273.591146 C262.989258,272.579861 265.165853,271.619141 267.089355,270.708984 C269.012858,269.798828 271.391927,268.484158 274.226562,266.764974 C277.061198,265.04579 279.187174,263.73112 280.604492,262.820964 C282.02181,261.910807 284.147787,260.495009 286.982422,258.573568 C289.817057,256.652127 291.538086,255.489149 292.145508,255.084635 L373.236328,202.295573 C380.322917,197.643663 387.055176,191.323134 393.433105,183.333984 C399.811035,175.344835 403,167.911892 403,161.035156 C403,152.742622 400.215983,145.663628 394.647949,139.798177 C389.079915,133.932726 382.145182,131 373.84375,131 Z" id="contact" fill="#000000"></path>
    </g>
</svg>