<?xml version="1.0" encoding="UTF-8"?>
<svg width="496px" height="496px" viewBox="0 0 496 496" version="1.1" xmlns="http://www.w3.org/2000/svg" xmlns:xlink="http://www.w3.org/1999/xlink">
    <title>instagram</title>
    <g id="Page-1" stroke="none" stroke-width="1" fill="none" fill-rule="evenodd">
        <path d="M248,0 C384.966618,0 496,111.033382 496,248 C496,384.966618 384.966618,496 248,496 C111.033382,496 0,384.966618 0,248 C0,111.033382 111.033382,0 248,0 Z M314.03,89.22 C287.62,87.73 208.44,87.73 182.03,89.22 C156.5,90.44 133.81,96.34 115.03,115 C96.25,133.66 90.47,156.37 89.18,182 C87.69,208.39 87.69,287.58 89.18,314 C90.4,339.58 96.29,362.3 115.03,381 C133.77,399.7 156.4,405.56 182.03,406.85 C208.44,408.34 287.62,408.34 314.03,406.85 C339.63,405.63 362.32,399.66 381.03,381 C399.74,362.34 405.59,339.63 406.88,314 C408.37,287.56 408.37,208.44 406.88,182.12 C405.66,156.49 399.7,133.77 381.03,115.07 C362.36,96.37 339.66,90.51 314.03,89.22 Z M153.69,123.25 C174.75,114.89 224.7,116.82 248,116.82 L248.706954,116.819454 C272.2971,116.783815 321.51,115.0429 342.3,123.25 C356.210011,128.738818 367.221182,139.749989 372.71,153.66 L372.71,153.66 L372.75,153.67 C381.1,174.74 379.18,224.72 379.18,248 L379.180564,248.706375 C379.217373,272.278095 381.0165,321.54 372.75,342.33 C367.261182,356.240011 356.250011,367.251182 342.34,372.74 C321.28,381.1 271.35,379.17 248.04,379.17 C224.73,379.17 174.73,381.03 153.73,372.74 C139.819989,367.251182 128.808818,356.240011 123.32,342.33 C115,321.26 116.85,271.27 116.85,247.99 L116.849457,247.283625 C116.814013,223.711905 115.0828,174.45 123.28,153.66 C128.768818,139.749989 139.779989,128.738818 153.69,123.25 Z M248,166 C202.712651,166 166,202.712651 166,248 C166,293.287349 202.712651,330.000122 248,330.000122 C269.75589,330.02658 290.628358,321.395855 306.012107,306.012107 C321.395855,290.628358 330.02658,269.75589 330.000122,248 C330.000122,202.712651 293.287349,166 248,166 Z M248,194.66 C277.457536,194.671029 301.337928,218.54247 301.36,248 C301.36,277.456265 277.482929,301.336316 248.026664,301.339996 C218.5704,301.343676 194.687364,277.469592 194.679998,248.013328 C194.672639,218.557065 218.543737,194.671045 248,194.66 Z M340.692249,144.875991 C333.538894,141.91407 325.305654,143.55344 319.83244,149.029516 C314.359226,154.505591 312.724158,162.739686 315.689817,169.891493 C318.655477,177.043299 325.637684,181.704045 333.38,181.7 L333.38,181.7 L333.42,181.74 C338.497793,181.737386 343.365543,179.71292 346.947631,176.113943 C350.52972,172.514967 352.531269,167.637749 352.510168,162.56 C352.510168,154.817683 347.845605,147.837913 340.692249,144.875991 Z" id="instagram" fill="#000000"></path>
    </g>
</svg>